<?xml version="1.0" encoding="utf-8"?>
<!-- Generator: Adobe Illustrator 28.0.0, SVG Export Plug-In . SVG Version: 6.00 Build 0)  -->
<svg version="1.1" id="Слой_1" xmlns="http://www.w3.org/2000/svg" xmlns:xlink="http://www.w3.org/1999/xlink" x="0px" y="0px"
	 viewBox="0 0 800 800" style="enable-background:new 0 0 800 800;" xml:space="preserve">
<style type="text/css">
	.st0{fill:#242938;}
	.st1{fill:#EA4335;}
	.st2{fill:#FBBC05;}
	.st3{fill:#34A853;}
	.st4{fill:#C5221F;}
	.st5{fill:#4285F4;}
</style>
<path class="st0" d="M50,298.9c0-87.1,0-130.7,17-164c14.9-29.3,38.7-53.1,68-68c33.3-17,76.8-17,164-17h202.2
	c87.1,0,130.7,0,164,17c29.3,14.9,53.1,38.7,68,68c17,33.3,17,76.8,17,164v202.2c0,87.1,0,130.7-17,164c-14.9,29.3-38.7,53.1-68,68
	c-33.3,17-76.8,17-164,17H298.9c-87.1,0-130.7,0-164-17c-29.3-14.9-53.1-38.7-68-68c-17-33.3-17-76.8-17-164V298.9z"/>
<path class="st1" d="M551.3,213.1L401.6,329.9L248.5,213.1v0l0.2,0.2v163.6l151.2,119.3l151.4-114.7V213.1z"/>
<path class="st2" d="M590.6,184.7l-39.3,28.4v168.4l123.7-95v-57.2C675,229.3,659.9,147.6,590.6,184.7z"/>
<path class="st3" d="M551.3,381.4v218.4h94.8c0,0,27-2.8,28.9-33.5V286.5L551.3,381.4z"/>
<path class="st4" d="M248.7,600V376.8l-0.2-0.2L248.7,600z"/>
<path class="st4" d="M248.5,213.1l-39.1-28.3C140,147.8,125,229.4,125,229.4v57.2l123.5,90V213.1z"/>
<path class="st4" d="M248.5,213.1v163.6l0.2,0.2V213.3L248.5,213.1z"/>
<path class="st5" d="M125,286.7v279.8c1.9,30.8,28.9,33.5,28.9,33.5h94.8l-0.2-223.3L125,286.7z"/>
</svg>
